<svg
    _ngcontent-ng-c1519997883=""
    overflow="hidden"
    xml:space="preserve"
    xmlns:xlink="http://www.w3.org/1999/xlink"
    xmlns="http://www.w3.org/2000/svg"
    viewBox="160 -20 255 190"
    width="64px"
    height="64px"
    style="max-height: 500px">
    <g transform="translate(63 -30)">
        <path
            fill-rule="evenodd"
            fill="#6519ff"
            d="M84.0444 209.087C82.5758 205.862 83.9996 202.058 87.2246 200.589L252.457 125.345C255.682 123.876 259.487 125.3 260.956 128.525L260.955 128.525C262.424 131.75 261 135.555 257.775 137.024L92.5429 212.268C89.3179 213.736 85.513 212.312 84.0444 209.087Z"></path>
        <path
            fill-rule="evenodd"
            fill="#6519ff"
            d="M-20.9083 144.468C-22.3769 141.242-20.9531 137.437-17.728 135.969L123.986 71.435C127.211 69.9664 131.016 71.3902 132.484 74.6153L132.484 74.6154C133.953 77.8405 132.529 81.6455 129.304 83.1141L-12.4097 147.648C-15.6347 149.116-19.4397 147.692-20.9083 144.467Z"></path>
        <path
            fill-rule="evenodd"
            fill="#6519ff"
            d="M-22.126 201.048C-23.5946 197.823-22.1709 194.018-18.9459 192.549L335.061 31.3408C338.286 29.8722 342.091 31.2961 343.56 34.5211L343.56 34.5211C345.028 37.746 343.604 41.5509 340.379 43.0195L-13.6277 204.228C-16.8526 205.697-20.6574 204.273-22.126 201.048Z"></path>
        <path
            fill-rule="evenodd"
            fill="#6519ff"
            d="M-32.7939 262.201C-34.2625 258.976-32.8387 255.171-29.6137 253.703L29.4721 226.796C32.6971 225.328 36.5021 226.751 37.9707 229.977L37.9706 229.977C39.4392 233.202 38.0154 237.007 34.7904 238.475L-24.2954 265.382C-27.5204 266.85-31.3253 265.426-32.7939 262.201Z"></path>
        <path
            fill-rule="evenodd"
            fill="#6519ff"
            d="M-61.6996 333.491C-63.1682 330.266-61.7444 326.461-58.5193 324.992L142.095 233.636C145.32 232.168 149.125 233.591 150.594 236.816L150.594 236.817C152.062 240.042 150.638 243.847 147.413 245.315L-53.2011 336.671C-56.4261 338.14-60.2311 336.716-61.6997 333.491Z"></path>
        <path
            fill-rule="evenodd"
            fill="#6519ff"
            d="M-27.1373 373.664C-28.6059 370.439-27.1821 366.634-23.9571 365.166L23.2651 343.661C26.4901 342.193 30.295 343.617 31.7636 346.842L31.7636 346.842C33.2322 350.067 31.8084 353.872 28.5834 355.34L-18.6388 376.844C-21.8638 378.313-25.6687 376.889-27.1373 373.664Z"></path>
    </g>
</svg>
